<svg xmlns="http://www.w3.org/2000/svg" xmlns:xlink="http://www.w3.org/1999/xlink" viewBox="0 0 200 29.8">
  <path d="M37.3 10c-2.9-1.4-3.1-1.6-3.1-3.8 0-1.9.5-2.5 2.5-2.5 1.6 0 3.7.3 4.7.5L42 .5C40.9.2 39.1 0 36.7 0 31.4 0 30 1.7 30 6.1c0 4.7.6 5.5 5.5 7.7 3 1.6 3.2 1.8 3.2 4 0 2.4-.5 3-3.1 3-2.1 0-4.9-.5-5.3-.6l-.5 3.7c1 .2 2.8.5 5.8.5 6 0 7.4-1.6 7.4-6.7-.1-4.6-.8-5.5-5.7-7.7zm7.9-3.3h4.1V2h-4.1v4.7zm0 17.4h4V8.6h-4v15.5zM67 8.3c-1.2 0-3 .5-4.5 1.4-.3-.9-1.1-1.4-2.5-1.4-1.3 0-3.1.6-4.7 1.6l-.4-1.3h-3.1v15.5h3.9V12.2c.6-.2 1.4-.4 2.1-.4.8 0 1.1.2 1.1.7v11.6h3.9V12.2c.6-.2 1.4-.4 2.1-.4.9 0 1.1.2 1.1.7v11.6h3.9v-13c-.2-1.7-.9-2.8-2.9-2.8zm10.5 0c-4.4 0-5.8 1.5-5.8 8 0 6.6 1.3 8 5.7 8s5.7-1.5 5.7-8.1c.1-6.5-1.2-7.9-5.6-7.9zm-.1 13c-1.5 0-1.7-.6-1.7-5s.3-4.9 1.8-4.9c1.4 0 1.7.5 1.7 4.9 0 4.5-.4 5-1.8 5zm16.1-13c-.9 0-2.8.4-4.7 1.6l-.4-1.3h-3.2v15.5h4V12.2c.5-.2 1.2-.4 2.1-.4.8 0 1.1.2 1.1.7V24h4V11c-.1-1.6-.9-2.7-2.9-2.7zM106 10c-2.9-1.4-3.1-1.6-3.1-3.8 0-1.9.5-2.5 2.5-2.5 1.6 0 3.7.3 4.7.5l.6-3.7c-1.1-.3-2.9-.5-5.3-.5-5.3 0-6.7 1.7-6.7 6.1 0 4.7.6 5.5 5.5 7.7 3 1.6 3.2 1.8 3.2 4 0 2.4-.5 3-3.1 3-2.1 0-4.9-.5-5.3-.6l-.5 3.7c1 .2 2.8.5 5.8.5 6 0 7.4-1.6 7.4-6.7-.1-4.6-.8-5.5-5.7-7.7zm13.1 1.5c.8 0 1.8.1 2.6.3l.6-3.1c-.6-.2-1.8-.3-3.1-.3-4.4 0-5.8 1.4-5.8 8s1.3 7.9 5.7 7.9c1.3 0 2.5-.2 3.2-.3l-.6-3c-.7.1-1.5.2-2.6.2-1.5 0-1.7-.8-1.7-4.8-.1-4.1.3-4.9 1.7-4.9zm8.6-1.4l-.5-1.6H124V24h4V12.7c1.2-.3 3.5-.5 4.3-.6l-.5-3.8c-1.7.5-3.1 1.2-4.1 1.8zm6.5-3.4h4.1V2h-4.1v4.7zm0 17.4h4V8.6h-4v15.5zM149 8.3c-.9 0-2.8.4-4.6 1.5l-.4-1.2h-3.2v20.9h4v-6.1c1.4.6 3 .9 4.3.9 1.9 0 3.1-1.3 3.1-8-.1-6.7-1.2-8-3.2-8zm-2.1 12.6c-.8 0-1.4 0-2.1-.2v-8.5c.5-.2 1.2-.4 2-.4.9 0 1.2.3 1.2 4.4.1 4.3-.2 4.7-1.1 4.7zm12.7-.2c-.8 0-1-.2-1-1.2V12h3.1V8.6h-3.1V4.1l-4 .6v3.8h-1.2V12h1.2v8.3c0 3 .9 3.9 3.4 3.9 1.4 0 3.1-.2 3.9-.3l-.2-3.3c-.6.1-1.6.1-2.1.1zm8.8-2h-4.6v5.4h4.6v-5.4zm2.8 5.5c0 1.7-.2 1.9-2.9 2.4l.8 3.2c5.1-.8 6.1-1.8 6.1-5.3v-16h-4v15.7zm0-17.5h4.1V2h-4.1v4.7zm12.1 7.9c-2.1-.6-2.2-.8-2.2-2 0-1 .4-1.2 1.7-1.2 1.1 0 2.4.1 3.4.3l.6-2.9c-.8-.2-2.4-.4-4.4-.4-3.7 0-4.9 1.2-4.9 4.5 0 3.1.5 4 3.6 4.9 2.6.8 2.6 1 2.6 2 0 1.2-.3 1.5-1.7 1.5-1.2 0-2.8-.2-4.1-.5l-.5 2.9c.6.2 2.3.5 4.8.5 4.3 0 5.1-1.4 5.1-4.8-.1-2.9-.7-3.8-4-4.8zm12.9 1.3l3.4-7.4H196l-1.6 3.7-1.7-3.7h-4.2l3.3 7.2L188 24h3.6l1.9-4.5 2.1 4.5h4.3l-3.7-8.1zM13.7.9H8.5l-3 11.9H3l-3 12h5.2l3-11.9h2.4l3.1-12zm5.1 0l-3 11.9h-2.4l-3 11.9h5.2l3-11.9H21L24 .9h-5.2z"/>
</svg>
