<svg xmlns="http://www.w3.org/2000/svg" xmlns:xlink="http://www.w3.org/1999/xlink" id="Ebene_1" x="0" y="0" version="1.1" viewBox="0 0 128 128" xml:space="preserve">
  <style>
    .st0,.st1{fill:#fff}.st1{display:none}
  </style>
  <path d="M20.8 128h20.7l12.1-64H32.9zM62.3 128H83l12.1-64H74.4z"/>
  <path d="M41.5 128h20.7l12.1-64H53.6z" class="st0"/>
  <path d="M86.7 120.9h24.7L125.9 64h-24.8z" class="st1"/>
  <path d="M65.8 0L53.6 64h20.8L86.5 0zM107.3 0L95.1 64h20.8L128 0z"/>
  <path d="M41.4 7.1L26.9 64h24.7L66.1 7.1z" class="st1"/>
  <path d="M86.5 0L74.4 64h20.8l12.1-64zM0 128h20.7l12.2-64H12.1zM45 0L32.9 64h20.7L65.7 0z" class="st0"/>
</svg>
